<svg viewBox="0 0 32 32" xmlns="http://www.w3.org/2000/svg"><path d="m10.5 6 .5625 1.375c.351563.855469.828125 2.992188.71875 4-1.363281.839844-2.199219 1.660156-2.84375 2.34375-.789062-.636719-2.347656-1.71875-4.9375-1.71875h-1v1c0 1.914063.691406 3.46875.9375 4-.25.527344-.9375 2.027344-.9375 4v1h1c2.570313 0 4.148438-1.085937 4.9375-1.71875 1.183594 1.21875 2.871094 2.503906 5 3.46875-.09375.621094-.167969 1.488281.09375 2.5l.1875.75h.78125c1.234375 0 2.296875-.613281 3.15625-1.15625.703125-.445312 1.042969-.757812 1.21875-.90625 3.976563-.140625 6.515625-2.285156 7.875-4.40625 1.40625-2.191406 1.75-4.375 1.75-4.375l.03125-.25-.09375-.25s-2.289062-6.289062-8.5-6.59375c-.660156-.800781-1.582031-1.464844-2.875-2-1.527344-.632812-3.449219-1.0625-5.5625-1.0625zm2.90625 2.125c1.261719.140625 2.441406.394531 3.375.78125 1.277344.527344 2.167969 1.285156 2.375 1.625l.28125.46875h.5625c4.996094 0 6.792969 4.730469 6.9375 5.125-.070312.367188-.359375 1.761719-1.375 3.34375-1.160156 1.808594-3.039062 3.53125-6.5625 3.53125h-.375l-.28125.25s-.527344.449219-1.25.90625c-.378906.238281-.703125.28125-1.09375.4375.039063-.457031 0-1.125 0-1.125l.21875-.875-.8125-.28125c-2.476562-.945312-4.582031-2.726562-5.65625-3.96875l-.6875-.8125-.75.75s-1.332031.933594-3.0625 1.375c.257813-1.171875.65625-2.21875.65625-2.21875l.21875-.4375-.21875-.4375s-.433594-1.148437-.6875-2.375c1.84375.40625 3.09375 1.53125 3.09375 1.53125l.75.75.6875-.8125c.894531-1.011719 3.304688-3.53125 6.84375-4l-.28125-1.96875c-.957031.125-1.792969.402344-2.59375.71875-.050781-.839844-.09375-1.5625-.3125-2.28125zm9.09375 6.875c-.828125 0-1.5.671875-1.5 1.5s.671875 1.5 1.5 1.5 1.5-.671875 1.5-1.5-.671875-1.5-1.5-1.5z"/></svg>